<svg xmlns="http://www.w3.org/2000/svg" viewBox="0 0 512 512">
  <path d="M256,20C125.7,20,20,125.7,20,256s105.7,236,236,236s236-105.7,236-236S386.3,20,256,20z M256,472 c-119.3,0-216-96.7-216-216S136.7,40,256,40s216,96.7,216,216S375.3,472,256,472z" fill="#D4AF37"/>
  
  <path d="M165,115c0,0,35,45,45,115c5,35,15,85,45,125c5,7,10,12,18,15c-15-20-40-60-50-130c-5-45-15-85-45-125 C172,110,165,115,165,115z" fill="#043927"/>
  
  <path d="M245,215c20-10,55,10,65,45c10,35-15,85-45,115c-5,5-12,2-10-5c5-25,15-65,0-110 C245,245,235,225,245,215z" fill="#043927"/>
  
  <path d="M225,245c10-5,25,5,30,20c5,15-5,35-20,45c-2,2-5,0-4-3c2-10,8-25,0-45 C225,255,220,248,225,245z" fill="#FFFFFF"/>
  
  <path d="M315,145c25-15,65,5,75,45c10,40-15,95-50,130c-5,5-15,0-12-8c5-30,20-80,0-130 C315,185,305,160,315,145z" fill="#D4AF37"/>
</svg>
